<?xml version="1.0" encoding="UTF-8" standalone="no"?>
<svg
   xmlns:dc="http://purl.org/dc/elements/1.1/"
   xmlns:cc="http://creativecommons.org/ns#"
   xmlns:rdf="http://www.w3.org/1999/02/22-rdf-syntax-ns#"
   xmlns:svg="http://www.w3.org/2000/svg"
   xmlns="http://www.w3.org/2000/svg"
   xmlns:sodipodi="http://sodipodi.sourceforge.net/DTD/sodipodi-0.dtd"
   xmlns:inkscape="http://www.inkscape.org/namespaces/inkscape"
   viewBox="0 0 442.20001 443.19778"
   version="1.1"
   id="svg42"
   sodipodi:docname="petite_connexion_3.svg"
   width="442.20001"
   height="443.19778"
   inkscape:version="0.92.4 (5da689c313, 2019-01-14)">
  <metadata
     id="metadata48">
    <rdf:RDF>
      <cc:Work
         rdf:about="">
        <dc:format>image/svg+xml</dc:format>
        <dc:type
           rdf:resource="http://purl.org/dc/dcmitype/StillImage" />
        <dc:title></dc:title>
      </cc:Work>
    </rdf:RDF>
  </metadata>
  <defs
     id="defs46" />
  <sodipodi:namedview
     pagecolor="#ffffff"
     bordercolor="#666666"
     borderopacity="1"
     objecttolerance="10"
     gridtolerance="10"
     guidetolerance="10"
     inkscape:pageopacity="0"
     inkscape:pageshadow="2"
     inkscape:window-width="1920"
     inkscape:window-height="1017"
     id="namedview44"
     showgrid="false"
     fit-margin-top="0.1"
     fit-margin-left="0.1"
     fit-margin-right="0.1"
     fit-margin-bottom="0.1"
     inkscape:zoom="0.98469388"
     inkscape:cx="219.45328"
     inkscape:cy="242.26884"
     inkscape:window-x="-8"
     inkscape:window-y="-8"
     inkscape:window-maximized="1"
     inkscape:current-layer="g12" />
  <!-- svg generated using QGIS www.qgis.org -->
  <g
     id="dessin3_entities"
     inkscape:groupmode="layer"
     inkscape:label="dessin3_entities"
     transform="translate(-432.4,-132.40111)">
    <g
       id="g12"
       style="fill:param(fill)#e5b636; stroke-width:param(outline-width) 0.1;stroke-linejoin:round">
      <g
         id="dessin3_entities_2"
         inkscape:label="PFEW">
        <path
           d="m 654,354 -157,156 11,10 11,9 12,9 12,7 13,7 13,6 14,5 13,4 15,4 14,2 14,1 15,1 14,-1 14,-1 15,-2 14,-4 14,-4 13,-5 13,-6 13,-7 12,-7 12,-9 11,-9 11,-10 -156,-156"
           id="path7"
           inkscape:connector-curvature="0" />
        <path
           d="m 654,354 156,-156 -11,-10 -11,-9 -12,-9 -12,-7 -13,-7 -13,-6 -13,-5 -14,-4 -14,-3 -15,-3 -14,-1 -14,-1 -15,1 -14,1 -14,3 -15,3 -13,4 -14,5 -13,6 -13,7 -12,7 -12,9 -11,9 -11,10 157,156"
           id="path9"
           inkscape:connector-curvature="0" />
      </g>
    </g>
  </g>
  <g
     id="g37"
     inkscape:groupmode="layer"
     inkscape:label="dessin3_entities"
     transform="translate(-432.4,-132.40111)">
    <g
       id="g35"
       style="fill:none;stroke:param(outline)#000000;stroke-width:param(outline-width) 0.1; stroke-linejoin:round">
      <g
         id="g17"
         inkscape:label="0">
        <path
           d="m 433,354 v -15 l 2,-15 2,-15 4,-15 5,-14 5,-14 7,-14 7,-13 8,-12 9,-12 10,-12 11,-10 11,-10 12,-9 13,-9 13,-7 14,-6 14,-6 14,-5 15,-3 15,-3 15,-1 15,-1"
           id="path15"
           inkscape:connector-curvature="0" />
      </g>
      <g
         id="g21"
         inkscape:label="0">
        <path
           d="m 654,133 15,1 15,1 15,3 14,3 15,5 14,6 13,6 13,7 13,9 12,9 11,10 11,10 10,12 9,12 8,12 8,13 6,14 6,14 4,14 4,15 2,15 2,15 v 15"
           id="path19"
           inkscape:connector-curvature="0" />
      </g>
      <g
         id="dessin3_entities_3"
         inkscape:label="0">
        <path
           d="m 874,354 v 15 l -2,15 -2,15 -4,15 -4,14 -6,14 -6,14 -8,13 -8,12 -9,12 -10,12 -11,10 -11,10 -12,9 -13,9 -13,7 -13,7 -14,5 -15,5 -14,3 -15,3 -15,1 -15,1"
           id="path23"
           inkscape:connector-curvature="0" />
      </g>
      <g
         id="dessin3_entities_4"
         inkscape:label="0">
        <path
           d="m 654,575 -15,-1 -15,-1 -15,-3 -15,-3 -14,-5 -14,-5 -14,-7 -13,-7 -13,-9 -12,-9 -11,-10 -11,-10 -10,-12 -9,-12 -8,-12 -7,-13 -7,-14 -5,-14 -5,-14 -4,-15 -2,-15 -2,-15 v -15"
           id="path26"
           inkscape:connector-curvature="0" />
      </g>
      <g
         id="dessin3_entities_5"
         inkscape:label="0">
        <path
           d="M 810,198 497,510"
           id="path29"
           inkscape:connector-curvature="0" />
      </g>
      <g
         id="dessin3_entities_6"
         inkscape:label="0">
        <path
           d="M 497,198 810,510"
           id="path32"
           inkscape:connector-curvature="0" />
      </g>
    </g>
  </g>
  <!-- QGIS extent for clipping, eg in Inkscape -->
  <g
     id="qgisviewbox"
     inkscape:groupmode="layer"
     inkscape:label="qgisviewbox"
     style="fill:none"
     transform="translate(-432.4,-132.40111)" />
</svg>
